<svg width="14" height="14" viewBox="0 0 14 14" fill="none" xmlns="http://www.w3.org/2000/svg">
<g clip-path="url(#clip0_584_6106)">
<path d="M6.41684 4.66659V3.49992H5.25017C4.928 3.49992 4.66684 3.23875 4.66684 2.91659C4.66684 2.59442 4.928 2.33325 5.25017 2.33325H6.41684V1.16659C6.41684 0.844419 6.678 0.583252 7.00017 0.583252C7.32233 0.583252 7.5835 0.844419 7.5835 1.16659V2.33325H8.75017C9.07234 2.33325 9.3335 2.59442 9.3335 2.91659C9.3335 3.23875 9.07234 3.49992 8.75017 3.49992H7.5835V4.66659C7.5835 4.98875 7.32233 5.24992 7.00017 5.24992C6.678 5.24992 6.41684 4.98875 6.41684 4.66659Z" fill="#434E61"/>
<path d="M12.8289 9.33325C13.151 9.33074 13.4142 9.58996 13.4168 9.91203C13.4186 10.1383 13.3544 10.3607 13.2323 10.5512C13.1105 10.7411 12.9359 10.8913 12.7304 10.9841L7.72591 13.2594L7.72478 13.2599C7.49805 13.3626 7.25189 13.4154 7.00301 13.4154C6.75412 13.4154 6.50799 13.3626 6.28125 13.2599L6.28068 13.2594L1.26367 10.9784L1.26026 10.9773C1.05785 10.8836 0.886286 10.7335 0.76636 10.5455C0.64648 10.3574 0.583005 10.1385 0.583499 9.91545C0.584296 9.59328 0.846379 9.33246 1.16854 9.33325C1.49041 9.33419 1.75011 9.59588 1.7496 9.91773L6.76205 12.1969C6.8376 12.2311 6.92008 12.2488 7.00301 12.2488C7.08597 12.2488 7.1684 12.2311 7.24398 12.1969L12.2479 9.92228L12.2502 9.92114C12.2478 9.59911 12.5069 9.3358 12.8289 9.33325Z" fill="#434E61"/>
<path d="M4.66683 5.29545C4.66683 5.52411 4.53323 5.73169 4.3251 5.8264L1.75244 6.99707L6.76376 9.28084C6.8397 9.31547 6.9224 9.3338 7.00586 9.33382C7.08936 9.33382 7.17199 9.31548 7.24797 9.28084L12.2599 7.00277L12.2536 7.00049L9.67495 5.82637C9.46698 5.73168 9.3335 5.52423 9.3335 5.29572C9.3335 4.87154 9.77203 4.58932 10.1581 4.76504L12.7367 5.93864C12.9411 6.03015 13.115 6.17815 13.2374 6.36589C13.3608 6.55528 13.4265 6.77672 13.4265 7.00277C13.4265 7.2289 13.3609 7.45077 13.2374 7.64022C13.115 7.82784 12.9404 7.9754 12.7361 8.0669L12.7367 8.06803L7.73161 10.3421L7.73218 10.3427C7.50424 10.4466 7.25639 10.5005 7.00586 10.5005C6.75534 10.5005 6.50748 10.4466 6.27954 10.3427L1.27507 8.06177C1.07102 7.97027 0.897141 7.8219 0.774905 7.63452C0.651375 7.44505 0.585819 7.22325 0.585778 6.99707C0.585805 6.77095 0.651459 6.54963 0.774905 6.36019C0.897196 6.17262 1.07082 6.0239 1.27507 5.93237L3.84192 4.76449C4.22816 4.58875 4.66683 4.87111 4.66683 5.29545Z" fill="#434E61"/>
</g>
<defs>
<clipPath id="clip0_584_6106">
<rect width="14" height="14" fill="white"/>
</clipPath>
</defs>
</svg>
